<?xml version="1.0" standalone="no"?>
<!DOCTYPE svg PUBLIC "-//W3C//DTD SVG 20010904//EN"
 "http://www.w3.org/TR/2001/REC-SVG-20010904/DTD/svg10.dtd">
<svg version="1.0" xmlns="http://www.w3.org/2000/svg"
 width="230.000000pt" height="230.000000pt" viewBox="0 0 230.000000 230.000000"
 preserveAspectRatio="xMidYMid meet">
<metadata>
Created by potrace 1.11, written by Peter Selinger 2001-2013
</metadata>
<g transform="translate(0.000000,230.000000) scale(0.100000,-0.100000)"
fill="#000000" stroke="none">
<path d="M1137 2263 c-9 -17 -136 -306 -282 -644 -147 -338 -273 -627 -280
-644 -8 -16 -52 -118 -98 -225 -47 -107 -137 -316 -201 -463 -64 -147 -116
-271 -116 -275 0 -4 445 -7 990 -7 545 0 990 3 990 7 0 7 -72 180 -110 263
-10 22 -64 146 -120 275 -55 129 -107 249 -115 265 -7 17 -91 208 -185 425
-94 217 -179 411 -187 430 -8 19 -21 49 -28 65 -7 17 -18 41 -24 55 -6 14 -58
133 -115 264 l-104 239 -15 -30z m348 -988 c180 -418 358 -832 396 -920 37
-87 67 -161 65 -162 -5 -5 -1326 656 -1326 663 0 3 118 276 262 606 159 365
264 594 269 586 4 -7 154 -355 334 -773z"/>
</g>
</svg>
