<?xml version="1.0" encoding="utf-8"?>
<!-- Generator: Adobe Illustrator 20.1.0, SVG Export Plug-In . SVG Version: 6.00 Build 0)  -->
<svg version="1.1" id="svg" xmlns="http://www.w3.org/2000/svg" xmlns:xlink="http://www.w3.org/1999/xlink" x="0px" y="0px"
	 viewBox="0 0 168.7 191.6" style="enable-background:new 0 0 168.7 191.6;" xml:space="preserve">
<style type="text/css">
	.st0{display:none;fill:#161616;}
	.st1{fill:#689F38;}
	.st2{fill:#C0CA33;}
	.st3{fill:#BF360C;}
</style>
<rect class="st0" width="168.7" height="191.6"/>
<path class="st1" d="M38.4,16.5c-0.1,0.2-0.3,0.3-0.5,0.3s-0.5-0.2-0.8-0.5c-0.4-0.4-0.8-0.7-1.5-1.2c-0.6-0.4-1.4-0.8-2.4-1.2
	s-2.2-0.5-3.7-0.5s-2.8,0.2-3.9,0.7c-1.1,0.4-2.1,1-2.9,1.8c-0.8,0.8-1.4,1.6-1.8,2.6s-0.6,2-0.6,3.1c0,1.4,0.3,2.5,0.8,3.5
	c0.6,0.9,1.3,1.7,2.2,2.3c0.9,0.6,2,1.2,3.1,1.6c1.2,0.4,2.4,0.9,3.6,1.3s2.4,0.8,3.6,1.3s2.2,1,3.1,1.7c0.9,0.7,1.7,1.6,2.2,2.6
	c0.6,1,0.8,2.3,0.8,3.8c0,1.6-0.3,3-0.8,4.4s-1.3,2.6-2.3,3.6s-2.3,1.8-3.7,2.4c-1.5,0.6-3.1,0.9-5,0.9c-1.3,0-2.4-0.1-3.5-0.3
	c-1-0.2-2-0.5-2.9-1s-1.7-0.9-2.4-1.6c-0.7-0.6-1.4-1.3-2.1-2.1l0.4-0.5c0.1-0.1,0.2-0.2,0.2-0.2c0.1,0,0.2-0.1,0.3-0.1
	s0.3,0.1,0.5,0.3s0.5,0.5,0.9,0.8s0.8,0.7,1.3,1.1c0.5,0.4,1.1,0.7,1.8,1.1s1.5,0.6,2.4,0.8s1.9,0.3,3.1,0.3c1.6,0,3.1-0.3,4.4-0.8
	s2.4-1.2,3.3-2.1c0.9-0.9,1.6-1.9,2-3.1c0.5-1.2,0.7-2.5,0.7-3.8c0-1.4-0.3-2.6-0.8-3.6c-0.6-0.9-1.3-1.7-2.2-2.3s-1.9-1.2-3.1-1.6
	c-1.2-0.4-2.4-0.8-3.6-1.2c-1.2-0.4-2.4-0.8-3.6-1.3s-2.2-1-3.1-1.8c-0.9-0.7-1.6-1.6-2.2-2.6c-0.6-1.1-0.8-2.4-0.8-4
	c0-1.2,0.2-2.4,0.7-3.6c0.5-1.1,1.1-2.1,2-3s2-1.6,3.3-2.1s2.8-0.8,4.5-0.8c1.9,0,3.6,0.3,5.1,0.9c1.5,0.6,2.8,1.6,4.1,2.9
	L38.4,16.5z"/>
<path class="st1" d="M61,12.6c4.3,0,7.5,0.9,9.8,2.8c2.2,1.8,3.3,4.6,3.3,8.3c0,1.6-0.3,3.1-0.9,4.4c-0.6,1.4-1.5,2.5-2.7,3.5
	c-1.2,1-2.5,1.7-4.1,2.3c-1.6,0.5-3.4,0.8-5.4,0.8h-7.6v15.9h-1.5v-38C51.9,12.6,61,12.6,61,12.6z M61,33.5c1.8,0,3.4-0.3,4.8-0.8
	s2.6-1.2,3.6-2.1s1.8-1.9,2.3-3.1s0.8-2.5,0.8-3.9c0-3.2-1-5.6-2.9-7.3s-4.8-2.5-8.7-2.5h-7.6v19.7H61z"/>
<path class="st1" d="M105.9,49.3l-0.1,1.3H83.4v-38h22.4v1.3H84.9v16.8h17.6v1.2H84.9v17.4C84.9,49.3,105.9,49.3,105.9,49.3z"/>
<path class="st1" d="M147.5,44.9c0.1,0,0.2,0,0.3,0.1l0.6,0.6c-0.8,0.8-1.6,1.5-2.6,2.2c-0.9,0.7-1.9,1.2-3,1.7s-2.3,0.8-3.6,1.1
	s-2.7,0.4-4.3,0.4c-2.6,0-4.9-0.5-7.1-1.4s-4-2.2-5.6-3.9s-2.8-3.7-3.7-6.1c-0.9-2.4-1.3-5.1-1.3-8s0.4-5.5,1.3-7.9s2.1-4.4,3.7-6.1
	s3.5-3,5.8-4c2.2-0.9,4.7-1.4,7.4-1.4c2.5,0,4.8,0.4,6.8,1.2s3.8,1.9,5.5,3.3l-0.4,0.6c-0.1,0.1-0.2,0.2-0.4,0.2
	c-0.1,0-0.3-0.1-0.6-0.3c-0.3-0.2-0.6-0.4-1-0.7s-0.9-0.6-1.5-1s-1.3-0.7-2.1-1s-1.7-0.5-2.8-0.7c-1-0.2-2.2-0.3-3.4-0.3
	c-2.4,0-4.7,0.4-6.8,1.3c-2.1,0.8-3.8,2.1-5.3,3.6c-1.5,1.6-2.6,3.5-3.4,5.7s-1.2,4.8-1.2,7.5c0,2.8,0.4,5.4,1.2,7.6
	c0.8,2.2,2,4.1,3.4,5.7c1.5,1.6,3.2,2.8,5.2,3.6c2,0.8,4.1,1.2,6.5,1.2c1.5,0,2.8-0.1,3.9-0.3c1.2-0.2,2.2-0.5,3.2-0.9
	s1.9-0.9,2.7-1.5s1.6-1.2,2.4-2C147.3,45,147.4,44.9,147.5,44.9z"/>
<path class="st2" d="M44.6,78.7H30.7v36.7h-1.5V78.7h-14v-1.3h29.4V78.7z"/>
<path class="st3" d="M44.6,141.6H30.7v40.2h-1.5v-40.2h-14v-1.4h29.4V141.6z"/>
<path class="st2" d="M74.3,115.4h-1.2c-0.2,0-0.4,0-0.5-0.1c-0.2-0.1-0.3-0.2-0.4-0.4L58.7,98.5c-0.1-0.2-0.3-0.4-0.4-0.5
	c-0.2-0.1-0.3-0.2-0.5-0.3c-0.2-0.1-0.4-0.1-0.7-0.2s-0.6-0.1-1-0.1h-5.5v17.9h-1.5v-38h9.2c4.1,0,7.3,0.8,9.4,2.4s3.2,4,3.2,7.3
	c0,1.5-0.3,2.8-0.8,4.1c-0.6,1.2-1.3,2.3-2.3,3.2s-2.2,1.6-3.7,2.1c-1.4,0.5-3,0.9-4.8,1c0.3,0.2,0.6,0.5,0.9,0.8L74.3,115.4z
	 M50.6,96.3h7.2c1.8,0,3.4-0.2,4.8-0.6c1.4-0.4,2.6-1,3.6-1.8s1.8-1.8,2.3-2.9s0.8-2.4,0.8-3.8c0-2.9-1-5.1-2.9-6.5
	s-4.7-2.1-8.3-2.1h-7.7v17.7H50.6z"/>
<path class="st2" d="M94.6,114.5c2,0,3.7-0.3,5.3-1s2.8-1.6,3.9-2.8c1.1-1.2,1.9-2.6,2.5-4.3c0.6-1.6,0.9-3.4,0.9-5.3V77.4h1.5v23.7
	c0,2.1-0.3,4-1,5.8c-0.6,1.8-1.6,3.4-2.8,4.7c-1.2,1.3-2.7,2.4-4.4,3.1c-1.7,0.8-3.7,1.1-5.8,1.1c-2.2,0-4.1-0.4-5.8-1.1
	c-1.7-0.8-3.2-1.8-4.4-3.1c-1.2-1.3-2.1-2.9-2.8-4.7c-0.6-1.8-1-3.7-1-5.8V77.4h1.4V101c0,1.9,0.3,3.6,0.9,5.3
	c0.6,1.6,1.4,3.1,2.5,4.3c1.1,1.2,2.4,2.2,3.9,2.9S92.7,114.5,94.6,114.5z"/>
<path class="st2" d="M151,77.4v38h-1.3V80.6c0-0.1,0-0.3,0-0.4s0-0.3,0-0.4l-15.9,27.9c-0.2,0.3-0.4,0.5-0.6,0.5h-0.3
	c-0.3,0-0.5-0.2-0.7-0.5l-16.4-28c0,0.2,0,0.3,0,0.5s0,0.3,0,0.4v34.7h-1.3v-38h0.9c0.1,0,0.3,0,0.4,0.1c0.1,0,0.2,0.1,0.3,0.3
	l16.5,28c0.2,0.3,0.3,0.7,0.5,1c0.1-0.2,0.1-0.3,0.2-0.5c0.1-0.2,0.2-0.3,0.2-0.5l16-27.9c0.1-0.1,0.2-0.2,0.3-0.3
	c0.1,0,0.2-0.1,0.4-0.1H151z"/>
<path class="st3" d="M73.5,180.1l-0.1,1.4H49.1v-41.3h24.4v1.4H50.7v18.3h19.2v1.3H50.7v18.9L73.5,180.1L73.5,180.1z"/>
<path class="st3" d="M95.5,140.8h-1.6l-17.1,41h35.7L95.5,140.8z M94.1,143.7c0.2-0.5,0.4-1.1,0.6-1.8c0.2,0.6,0.4,1.2,0.6,1.8
	l14.6,35.5l-25.2-12.5L94.1,143.7z"/>
</svg>
